<?xml version="1.0" encoding="utf-8"?>
<!-- Generator: Adobe Illustrator 26.3.0, SVG Export Plug-In . SVG Version: 6.00 Build 0)  -->
<svg version="1.1" id="Layer_1" xmlns="http://www.w3.org/2000/svg" xmlns:xlink="http://www.w3.org/1999/xlink" x="0px" y="0px"
	 viewBox="0 0 416.5 529.2" style="enable-background:new 0 0 416.5 529.2;" xml:space="preserve">
<style type="text/css">
	.st0{fill:#04225D;}
	.st1{fill:#990303;}
</style>
<path class="st0" d="M403.4,75.8C397,57,386.9,40.4,372.2,26.7c-2.1-2-3.4-2.7-5.7,0.2c-25.9,31.7-51.9,63.3-77.9,95
	c-1,1.2-1.7,2.3-1.2,4c1.3,4.3,2.4,8.6,3.6,12.9c0.1,1.6,0.3,3.3,0.4,4.9c0.2,1,0.4,2.1,0.6,3.1c0,6.3,0,12.6,0,18.9
	c-0.2,1-0.4,2.1-0.6,3.1c-0.2,1.6-0.3,3.3-0.5,4.9c-0.3,0.9-0.7,1.8-0.9,2.8c-5.2,24.8-20.3,39.6-45,44.8c-11.8,2.5-23.8,2-35.8,2
	c-2.5,0-4.2,0.5-5.9,2.6c-36.5,44.7-73.1,89.3-109.8,133.8c-2.1,2.6-3.4,6.3-7.2,7.2c-2.4,0.4-3.5,2.3-4.8,4
	c-4.1,4.9-7.6,10.4-11.8,15.3c-0.5,0.5-0.9,1.1-1.3,1.7c-0.4,0.9-0.6,1.8-0.6,2.7c-0.1,0-0.3,0-0.4,0c-0.1,3.1-0.1,6.1-0.2,9.2
	c-0.3,1.8-0.7,3.6-1,5.4c-3.9,28.4-22.1,48.5-49.6,54.4c-5.3,1.1-10.7,1.5-16.1,2.2c-1.1,1.5-0.6,3.2-0.6,4.8
	c0,19.1,0.2,38.3-0.1,57.4c-0.1,4.7,1.5,5.3,5.6,5.3c83.9-0.1,167.8-0.1,251.7-0.1c1.7,0,3.3-0.2,5-0.3c2.9-0.2,1.5-2.4,1.5-3.6
	c0.1-20.3,0.1-40.6,0.1-60.8c0-0.9,0.4-2-0.6-2.7l0,0v0c-7.6-1.4-15.4-1-23-2.6c-21.4-4.6-37.7-15.1-44.5-37
	c-1.5-4.7-2.1-9.6-3.2-14.5l0,0c0-37.6-0.1-75.3-0.1-112.9c0.3-0.3,0.7-0.7,1-1c17-0.1,33.9-0.2,50.9-0.2l0,0c7-0.5,14.1,0,21-1.6
	c1.7-0.1,3.3-0.1,5-0.2c1.4-0.3,2.8-0.5,4.3-0.8c1.2-0.1,2.5-0.2,3.7-0.2c15.3-1.7,30.1-5.3,44.6-10.4
	c55.5-19.5,84.7-61.5,89.3-119.5c0.1-0.9,0.2-1.8,0.2-2.7v0c0,0,0,0,0,0C414.9,130,412.6,102.5,403.4,75.8z"/>
<path class="st1" d="M328.7,11.9c-25-9.2-51.2-11.6-77.6-11.7C168.9-0.1,86.7,0.1,4.4,0C0.9,0,0,0.9,0,4.4C0.2,23.2,0.2,42,0.3,60.9
	c0,9.8,0,9.8,9.9,10.6c30.8,2.7,49.4,17.3,57,45.2c0,3.7,0,7.3,0,11c0,85.7,0,171.5,0,257.2c0,1.8,0.1,3.7,0.2,5.5
	c0.2,0.2,0.4,0.4,0.5,0.7c0.1-0.3,0.2-0.5,0.3-0.8c0.4-0.9,0.9-1.7,1.3-2.6c0.3-0.4,0.6-0.7,0.9-1.1c6.1-6,10.2-13.7,16-19.9
	c-0.5-2.1,1-3.4,2-4.8c33.6-47.3,67.1-94.6,100.7-141.8c2.5-3.6,3.6-7.1,3.6-11.5c-0.2-33.3,0-66.6-0.2-99.9c0-3.5,0.7-5,4.6-4.9
	c13.6,0.3,27.3,0,41,0.1c8.4,0,16.5,1.9,23.9,6.1c2.9,1.7,4.2,1.4,6.2-1.5C289,78.6,310,48.9,330.9,19.1
	C334.4,14.1,334.4,14,328.7,11.9z"/>
</svg>
